<svg width="200" height="200" viewBox="0 0 200 200" fill="none" xmlns="http://www.w3.org/2000/svg">
  <defs>
    <linearGradient id="logoGradient" x1="50%" y1="0%" x2="50%" y2="100%">
      <stop offset="0%" stop-color="#8B5CF6"/>
      <stop offset="100%" stop-color="#00D4FF"/>
    </linearGradient>
  </defs>
  <!-- Outer C arc -->
  <path d="M145 35C100 5 35 25 20 95C5 165 50 195 110 195C140 195 165 180 180 155"
        stroke="url(#logoGradient)"
        stroke-width="28"
        stroke-linecap="round"
        fill="none"/>
  <!-- Inner shape - stylized bubble/pin -->
  <path d="M155 65C135 40 95 35 65 55C35 80 35 125 55 160L75 175L95 155C120 165 150 145 160 115C170 85 165 75 155 65Z"
        fill="url(#logoGradient)"/>
  <!-- Inner cutout to create the shape -->
  <path d="M125 80C110 65 85 65 70 80C55 100 60 130 80 145L90 135C75 125 75 105 85 90C95 80 115 80 125 95C130 105 125 115 115 125L125 135C145 115 140 90 125 80Z"
        fill="#09090b"/>
</svg>
